<svg width="991" height="493" xmlns="http://www.w3.org/2000/svg" xmlns:xlink="http://www.w3.org/1999/xlink" overflow="hidden"><g transform="translate(-98 -107)"><g><g><g><path d="M197.273 428.009C144.155 423.113 96.0061 400.098 59.6202 362.397 28.9333 330.468 9.71751 291.306 2.77643 246.591 0.657576 232.709 0.438384 203.556 2.41111 190.405 9.42525 143.717 28.3488 104.774 59.7663 72.1872 117.048 13.0785 202.972-8.76768 282.027 15.7818 329.518 30.6138 370.507 61.3007 397.979 102.655 442.841 170.312 444.01 258.135 400.902 327.473 388.846 346.835 368.535 369.484 351.292 382.782 311.691 413.177 264.272 429.178 215.173 428.812 209.182 428.739 201.072 428.374 197.273 428.009ZM105.797 232.563 105.577 229.056 95.933 228.836 86.2155 228.617 86.2155 221.019 86.2155 213.347 96.0791 213.347 105.943 213.347 105.943 210.059 105.943 206.771 96.0791 206.771 86.2155 206.771 86.2155 199.099 86.2155 191.428 96.0791 191.428 105.943 191.428 105.943 187.774 105.943 184.121 92.4259 184.121 78.9822 184.121 78.763 191.281 78.5438 198.369 69.7761 198.369 61.0084 198.369 57.136 191.281 53.1906 184.121 48.8067 184.121 44.4229 184.121 45.8842 186.532C46.6879 187.774 51.6562 196.761 56.9899 206.406 62.3236 216.05 68.1687 226.644 69.9953 230.005L73.3562 235.997 89.6495 235.997 106.016 235.997 105.797 232.563ZM174.477 232.563 174.258 229.056 169.728 228.836 165.125 228.617 165.125 206.406 165.125 184.121 161.106 184.121 157.088 184.121 157.088 206.406 157.088 228.69 152.338 228.69 147.589 228.69 147.589 232.343 147.589 235.997 161.179 235.997 174.696 235.997 174.477 232.563ZM239.723 234.828C254.043 230.59 254.263 209.621 240.015 204.798L236.07 203.483 242.938 194.35C246.737 189.309 249.879 184.998 249.879 184.706 249.879 184.34 247.833 184.121 245.349 184.121L240.746 184.194 232.343 196.031 223.941 207.867 223.722 196.031 223.576 184.121 219.923 184.121 216.269 184.121 216.269 210.059 216.269 235.997 225.987 235.997C232.782 235.997 236.946 235.631 239.723 234.828ZM301.754 210.059 301.754 184.121 297.736 184.121 293.717 184.121 293.717 210.059 293.717 235.997 297.736 235.997 301.754 235.997 301.754 210.059ZM357.429 226.498C360.498 221.457 363.347 217.292 363.785 217.146 364.151 217 367 221.238 370.142 226.425L375.914 235.997 380.517 235.997 385.047 235.997 383.074 232.928C382.051 231.174 378.252 225.402 374.672 220.069L368.242 210.351 376.645 197.565C381.248 190.551 385.047 184.633 385.047 184.487 385.047 184.267 383.147 184.121 380.809 184.121L376.499 184.121 370.361 193.985C367 199.392 364.078 203.775 363.859 203.775 363.639 203.775 360.717 199.392 357.283 193.985L351.072 184.121 346.908 184.121C344.57 184.121 342.67 184.267 342.67 184.487 342.67 184.633 346.469 190.551 351.072 197.565L359.548 210.351 353.776 218.973C350.634 223.722 346.835 229.494 345.373 231.832L342.67 236.07 347.2 235.85 351.803 235.631 357.429 226.498Z" transform="matrix(1 0 0 -1 99 577)"/><path d="M72.8448 220.142C67.365 210.132 65.7576 206.99 65.7576 206.406 65.7576 206.187 68.7532 206.04 72.3333 206.04L78.9091 206.04 78.9091 217.365C78.9091 223.868 78.6168 228.69 78.2515 228.69 77.8862 228.69 75.402 224.818 72.8448 220.142Z" transform="matrix(1 0 0 -1 99 577)"/><path d="M223.722 219.046 223.941 209.328 229.421 209.547C237.02 209.767 240.6 211.593 242.28 216.05 243.449 219.046 243.449 219.703 242.499 222.334 240.819 227.083 238.554 228.252 230.444 228.544L223.503 228.836 223.722 219.046Z" transform="matrix(1 0 0 -1 99 577)"/></g></g></g><text font-family="Arial Narrow,Arial Narrow_MSFontService,Arial" font-weight="400" font-stretch="condensed" font-size="133" transform="translate(649.6 278)">ÆTRIX</text><path d="M559.5 519.5 646.167 519.5" stroke="#FFFFFF" stroke-width="0.666667" stroke-miterlimit="8" fill-rule="evenodd"/><text font-family="Arial Narrow,Arial Narrow_MSFontService,Arial" font-weight="400" font-stretch="condensed" font-size="67" transform="translate(654.933 544)">ÆTRIX.COM</text><path d="M990.5 519.5 1077.17 519.5" stroke="#FFFFFF" stroke-width="0.666667" stroke-miterlimit="8" fill-rule="evenodd"/></g></svg>