<svg width="792" height="792" viewBox="0 0 594 594" xmlns="http://www.w3.org/2000/svg" xmlns:xlink="http://www.w3.org/1999/xlink" overflow="hidden"><g transform="matrix(0.1 0 0 -0.1 0 594)"><path d="M2700 5858C1973 5791 1314 5476 816 4960 396 4523 133 3987 38 3375 9 3185 6 2786 33 2606 129 1967 388 1434 818 988 1602 179 2778-120 3860 216 4510 419 5071 839 5447 1405 6061 2331 6077 3533 5487 4482 5322 4747 5044 5057 4808 5239 4266 5655 3617 5874 2945 5869 2863 5868 2752 5863 2700 5858ZM1448 3183 1445 3135 1313 3132 1180 3129 1180 3025 1180 2920 1315 2920 1450 2920 1450 2875 1450 2830 1315 2830 1180 2830 1180 2725 1180 2620 1315 2620 1450 2620 1450 2570 1450 2520 1265 2520 1081 2520 1078 2618 1075 2715 955 2715 835 2715 782 2618 728 2520 668 2520 608 2520 628 2553C639 2570 707 2693 780 2825 853 2957 933 3102 958 3148L1004 3230 1227 3230 1451 3230 1448 3183ZM2388 3183 2385 3135 2323 3132 2260 3129 2260 2825 2260 2520 2205 2520 2150 2520 2150 2825 2150 3130 2085 3130 2020 3130 2020 3180 2020 3230 2206 3230 2391 3230 2388 3183ZM3281 3214C3477 3156 3480 2869 3285 2803L3231 2785 3325 2660C3377 2591 3420 2532 3420 2528 3420 2523 3392 2520 3358 2520L3295 2521 3180 2683 3065 2845 3062 2683 3060 2520 3010 2520 2960 2520 2960 2875 2960 3230 3093 3230C3186 3230 3243 3225 3281 3214ZM4130 2875 4130 2520 4075 2520 4020 2520 4020 2875 4020 3230 4075 3230 4130 3230 4130 2875ZM4892 3100C4934 3031 4973 2974 4979 2972 4984 2970 5023 3028 5066 3099L5145 3230 5208 3230 5270 3230 5243 3188C5229 3164 5177 3085 5128 3012L5040 2879 5155 2704C5218 2608 5270 2527 5270 2525 5270 2522 5244 2520 5212 2520L5153 2520 5069 2655C5023 2729 4983 2789 4980 2789 4977 2789 4937 2729 4890 2655L4805 2520 4748 2520C4716 2520 4690 2522 4690 2525 4690 2527 4742 2608 4805 2704L4921 2879 4842 2997C4799 3062 4747 3141 4727 3173L4690 3231 4752 3228 4815 3225 4892 3100Z" fill="#FFFFFF"/><path d="M997 3013C922 2876 900 2833 900 2825 900 2822 941 2820 990 2820L1080 2820 1080 2975C1080 3064 1076 3130 1071 3130 1066 3130 1032 3077 997 3013Z" fill="#FFFFFF"/><path d="M3062 2998 3065 2865 3140 2868C3244 2871 3293 2896 3316 2957 3332 2998 3332 3007 3319 3043 3296 3108 3265 3124 3154 3128L3059 3132 3062 2998Z" fill="#FFFFFF"/></g></svg>