<?xml version="1.0" standalone="no"?>
<!DOCTYPE svg PUBLIC "-//W3C//DTD SVG 20010904//EN"
 "http://www.w3.org/TR/2001/REC-SVG-20010904/DTD/svg10.dtd">
<svg version="1.0" xmlns="http://www.w3.org/2000/svg"
 width="594.000000pt" height="594.000000pt" viewBox="0 0 594.000000 594.000000"
 preserveAspectRatio="xMidYMid meet">

<g transform="translate(0.000000,594.000000) scale(0.100000,-0.100000)"
fill="#000000" stroke="none">
<path d="M2700 5858 c-727 -67 -1386 -382 -1884 -898 -420 -437 -683 -973
-778 -1585 -29 -190 -32 -589 -5 -769 96 -639 355 -1172 785 -1618 784 -809
1960 -1108 3042 -772 650 203 1211 623 1587 1189 614 926 630 2128 40 3077
-165 265 -443 575 -679 757 -542 416 -1191 635 -1863 630 -82 -1 -193 -6 -245
-11z m-1252 -2675 l-3 -48 -132 -3 -133 -3 0 -104 0 -105 135 0 135 0 0 -45 0
-45 -135 0 -135 0 0 -105 0 -105 135 0 135 0 0 -50 0 -50 -185 0 -184 0 -3 98
-3 97 -120 0 -120 0 -53 -97 -54 -98 -60 0 -60 0 20 33 c11 17 79 140 152 272
73 132 153 277 178 323 l46 82 223 0 224 0 -3 -47z m940 0 l-3 -48 -62 -3 -63
-3 0 -304 0 -305 -55 0 -55 0 0 305 0 305 -65 0 -65 0 0 50 0 50 186 0 185 0
-3 -47z m893 31 c196 -58 199 -345 4 -411 l-54 -18 94 -125 c52 -69 95 -128
95 -132 0 -5 -28 -8 -62 -8 l-63 1 -115 162 -115 162 -3 -162 -2 -163 -50 0
-50 0 0 355 0 355 133 0 c93 0 150 -5 188 -16z m849 -339 l0 -355 -55 0 -55 0
0 355 0 355 55 0 55 0 0 -355z m762 225 c42 -69 81 -126 87 -128 5 -2 44 56
87 127 l79 131 63 0 62 0 -27 -42 c-14 -24 -66 -103 -115 -176 l-88 -133 115
-175 c63 -96 115 -177 115 -179 0 -3 -26 -5 -58 -5 l-59 0 -84 135 c-46 74
-86 134 -89 134 -3 0 -43 -60 -90 -134 l-85 -135 -57 0 c-32 0 -58 2 -58 5 0
2 52 83 115 179 l116 175 -79 118 c-43 65 -95 144 -115 176 l-37 58 62 -3 63
-3 77 -125z"/>
<path d="M997 3013 c-75 -137 -97 -180 -97 -188 0 -3 41 -5 90 -5 l90 0 0 155
c0 89 -4 155 -9 155 -5 0 -39 -53 -74 -117z"/>
<path d="M3062 2998 l3 -133 75 3 c104 3 153 28 176 89 16 41 16 50 3 86 -23
65 -54 81 -165 85 l-95 4 3 -134z"/>
</g>
</svg>
